<?xml version="1.0" encoding="UTF-8"?>
<svg xmlns="http://www.w3.org/2000/svg" width="249" height="144" viewBox="0 0 249 144" fill="none">
  <g clip-path="url(#clip0_2301_13026)">
    <path d="M52.65 98.707C52.65 119.311 36.58 132.217 4.44299 137.424C2.42699 137.76 1.27898 136.947 0.999985 134.988C0.831985 133.588 1.08399 132.636 1.75599 132.133C2.25999 131.684 3.54698 131.209 5.61898 130.705C16.312 128.241 24.18 125.021 29.219 121.047C34.93 116.512 37.785 110.436 37.785 102.822C37.785 97.783 35.993 93.808 32.41 90.896C29.162 88.208 25.075 86.865 20.148 86.865C17.404 86.865 15.5 86.978 14.437 87.201C12.869 87.537 11.777 86.726 11.162 84.765C10.601 83.03 11.301 81.714 13.262 80.818C29.274 73.427 37.282 65.757 37.282 57.806C37.282 50.808 33.558 47.308 26.112 47.308C20.12 47.308 14.382 48.849 8.89499 51.927C7.21499 52.88 5.67499 52.544 4.27599 50.919C3.71499 50.247 3.43599 49.688 3.43599 49.239C3.43599 48.456 4.24699 47.475 5.87199 46.3C13.095 40.87 21.044 38.154 29.724 38.154C44.896 38.154 52.484 43.781 52.484 55.035C52.484 64.386 45.065 72.42 30.228 79.139C36.89 78.86 42.293 80.483 46.437 84.01C50.578 87.537 52.65 92.437 52.65 98.707Z" fill="white"></path>
    <path d="M137.559 75.359C137.559 85.55 134.297 93.878 127.775 100.344C121.252 106.811 112.952 110.044 102.874 110.044C92.796 110.044 84.677 106.713 78.519 100.05C72.023 92.94 68.777 83.085 68.777 70.488C68.777 53.636 74.375 38.771 85.574 25.892C95.652 14.302 108.641 5.96 124.543 0.865001C126.11 0.361001 127.118 0.753999 127.566 2.041C128.293 4.057 127.398 5.736 124.878 7.08C103.097 18.391 90.192 33.06 86.161 51.088C91.255 45.826 98.366 43.193 107.493 43.193C116.227 43.193 123.393 46.105 128.993 51.927C134.703 57.919 137.559 65.729 137.559 75.359ZM122.609 76.871C122.609 69.257 120.957 63.042 117.654 58.226C114.127 53.132 109.311 50.583 103.209 50.583C97.049 50.583 92.178 52.879 88.596 57.47C85.012 62.062 83.221 68.304 83.221 76.199C83.221 84.15 85.027 90.518 88.638 95.305C92.249 100.092 97.106 102.486 103.209 102.486C109.424 102.486 114.211 100.191 117.57 95.599C120.93 91.009 122.609 84.765 122.609 76.871Z" fill="white"></path>
    <path d="M219.611 73.427C219.611 83.954 216.474 92.548 210.205 99.21C203.766 106.097 195.256 109.54 184.674 109.54C174.875 109.54 166.756 106.335 160.319 99.924C153.88 93.514 150.661 85.437 150.661 75.695C150.661 64.777 154.132 55.959 161.075 49.24C167.68 42.914 175.911 39.75 185.766 39.75C195.731 39.75 203.865 42.872 210.163 49.114C216.462 55.357 219.611 63.462 219.611 73.427ZM204.662 75.023C204.662 66.513 202.94 59.767 199.497 54.783C196.054 49.801 191.363 47.308 185.43 47.308C178.934 47.308 173.924 49.828 170.397 54.867C167.092 59.57 165.442 65.926 165.442 73.931C165.442 83.001 167.219 89.945 170.775 94.759C174.33 99.575 179.215 101.982 185.43 101.982C191.42 101.982 196.123 99.672 199.539 95.053C202.953 90.434 204.662 83.757 204.662 75.023Z" fill="white"></path>
    <path d="M95.573 131.179C95.573 131.584 95.276 131.831 94.681 131.919C93.847 132.045 93.359 132.134 93.221 132.185C92.765 132.374 92.538 132.742 92.538 133.285V139.223C92.538 139.969 91.564 140.766 89.617 141.613C87.429 142.561 84.969 143.036 82.237 143.036C78.266 143.036 74.959 141.853 72.316 139.488C69.635 137.086 68.294 134.006 68.294 130.25C68.294 126.418 69.679 123.23 72.449 120.688C75.13 118.235 78.355 117.008 82.124 117.008C85.02 117.008 87.48 117.356 89.504 118.051C90.996 118.557 91.774 119.063 91.837 119.569C91.963 120.53 92.027 121.953 92.027 123.838C92.027 124.255 91.768 124.477 91.249 124.502C90.642 124.527 90.269 124.356 90.13 123.99C89.434 122.105 88.457 120.749 87.199 119.921C85.941 119.093 84.211 118.678 82.011 118.678C78.976 118.678 76.605 119.608 74.897 121.467C73.139 123.402 72.26 126.172 72.26 129.776C72.26 133.255 73.272 136.055 75.296 138.18C77.256 140.254 79.779 141.291 82.865 141.291C84.446 141.291 85.919 141.007 87.285 140.437C88.587 139.894 89.239 139.343 89.239 138.787V134.841C89.239 133.905 89.049 133.228 88.67 132.811C88.341 132.432 87.69 132.097 86.716 131.805C85.995 131.59 85.654 131.331 85.692 131.028C85.742 130.699 85.828 130.497 85.948 130.421C86.068 130.345 86.375 130.339 86.868 130.402C89.562 130.731 92.18 130.756 94.722 130.478C94.861 130.465 94.975 130.459 95.063 130.459C95.402 130.458 95.573 130.698 95.573 131.179Z" fill="white"></path>
    <path d="M121.98 142.523C121.993 142.814 121.746 142.959 121.24 142.959C116.699 142.959 112.412 139.07 108.378 131.292C106.822 131.368 105.994 131.406 105.893 131.406V139.373C105.893 139.968 106.038 140.363 106.329 140.559C106.62 140.755 107.265 140.929 108.264 141.08C108.959 141.194 109.307 141.44 109.307 141.82C109.307 142.136 109.25 142.332 109.136 142.408C109.022 142.484 108.706 142.509 108.188 142.484C105.899 142.383 103.401 142.434 100.694 142.636C100.15 142.674 99.879 142.453 99.879 141.972C99.879 141.643 100.15 141.453 100.694 141.403C101.933 141.277 102.553 140.6 102.553 139.373V121.2C102.553 119.999 101.851 119.259 100.447 118.981C99.752 118.842 99.404 118.621 99.404 118.317C99.404 117.849 99.638 117.615 100.106 117.615C100.245 117.615 100.397 117.628 100.561 117.653C101.08 117.729 101.87 117.767 102.933 117.767C103.287 117.767 104.179 117.748 105.608 117.71C107.037 117.672 108.365 117.653 109.592 117.653C112.121 117.653 114.119 118.127 115.587 119.076C117.231 120.126 118.053 121.675 118.053 123.724C118.053 127.227 116.029 129.541 111.982 130.667C113.272 133.602 114.79 136.118 116.535 138.217C118.318 140.367 119.924 141.556 121.353 141.783C121.746 141.847 121.955 142.093 121.98 142.523ZM114.354 124.179C114.354 122.307 113.873 120.973 112.912 120.176C111.951 119.38 110.414 118.981 108.302 118.981C107.353 118.981 106.715 119.111 106.386 119.37C106.057 119.629 105.893 120.189 105.893 121.049V129.984C108.954 129.883 111.154 129.345 112.495 128.371C113.734 127.474 114.354 126.076 114.354 124.179Z" fill="white"></path>
    <path d="M152.275 129.984C152.275 133.639 150.921 136.737 148.216 139.279C145.56 141.783 142.366 143.035 138.635 143.035C134.714 143.035 131.458 141.859 128.865 139.506C126.209 137.078 124.881 133.942 124.881 130.097C124.881 126.379 126.228 123.255 128.922 120.725C131.578 118.246 134.815 117.007 138.635 117.007C142.53 117.007 145.768 118.215 148.348 120.631C150.967 123.085 152.275 126.202 152.275 129.984ZM148.426 130.629C148.426 126.948 147.42 124.04 145.408 121.902C143.473 119.853 140.919 118.829 137.744 118.829C135.113 118.829 132.954 119.8 131.265 121.741C129.576 123.682 128.732 126.208 128.732 129.32C128.732 133.051 129.712 135.985 131.672 138.122C133.582 140.196 136.174 141.233 139.45 141.233C142.094 141.233 144.25 140.259 145.919 138.312C147.588 136.365 148.426 133.803 148.426 130.629Z" fill="white"></path>
    <path d="M184.792 118.165C184.792 118.418 184.507 118.614 183.938 118.753C182.951 118.981 182.325 119.209 182.059 119.436C181.705 119.752 181.528 120.34 181.528 121.2V132.07C181.528 135.549 180.624 138.229 178.816 140.114C176.957 142.062 174.262 143.035 170.734 143.035C163.272 143.035 159.542 139.525 159.542 132.506V121.124C159.542 119.923 158.84 119.195 157.437 118.942C156.956 118.854 156.662 118.771 156.554 118.695C156.446 118.619 156.393 118.467 156.393 118.239C156.393 117.847 156.488 117.62 156.678 117.556C156.766 117.518 157.063 117.512 157.57 117.537C160.971 117.714 163.571 117.714 165.367 117.537C165.746 117.499 165.976 117.518 166.059 117.594C166.141 117.67 166.182 117.885 166.182 118.239C166.182 118.505 165.91 118.701 165.367 118.827C164.305 119.055 163.69 119.219 163.526 119.32C163.122 119.573 162.92 120.091 162.92 120.876V131.841C162.92 135.066 163.59 137.431 164.931 138.936C166.271 140.441 168.428 141.193 171.4 141.193C176.497 141.193 179.046 138.259 179.046 132.391V121.464C179.046 120.604 178.824 119.978 178.382 119.586C178.028 119.257 177.407 119.017 176.523 118.865C175.828 118.739 175.48 118.504 175.48 118.163C175.48 117.771 175.581 117.543 175.783 117.48C175.859 117.455 176.156 117.449 176.675 117.461C180.192 117.6 182.613 117.6 183.942 117.461C184.447 117.41 184.725 117.511 184.776 117.764C184.785 117.855 184.792 117.988 184.792 118.165Z" fill="white"></path>
    <path d="M217.667 117.899C217.667 118.215 217.326 118.475 216.643 118.677C215.125 119.107 214.367 119.986 214.367 121.314V134.954C214.367 137.825 214.405 140.14 214.481 141.897C214.506 142.567 214.348 142.946 214.006 143.035C213.437 143.174 212.956 142.877 212.565 142.143C211.932 140.941 209.454 137.982 205.128 133.265C201.511 129.332 198.007 125.658 194.618 122.243C194.504 122.129 194.39 122.098 194.276 122.148C194.15 122.211 194.087 122.356 194.087 122.585V138.141C194.087 139.81 194.928 140.804 196.61 141.12C197.305 141.259 197.653 141.506 197.653 141.86C197.653 142.341 197.26 142.562 196.477 142.524C193.466 142.398 191.126 142.398 189.457 142.524C188.913 142.562 188.642 142.341 188.642 141.86C188.642 141.594 188.913 141.404 189.457 141.291C190.431 141.063 191.082 140.754 191.411 140.362C191.739 139.97 191.904 139.306 191.904 138.37V121.58C191.904 120.847 191.753 120.284 191.449 119.892C191.158 119.538 190.595 119.171 189.761 118.791C189.141 118.5 188.844 118.203 188.869 117.899C188.907 117.558 189.191 117.425 189.723 117.501C191.367 117.729 192.789 117.779 193.992 117.653C194.611 117.59 195.168 117.824 195.661 118.355L211.558 135.295C211.773 135.536 211.918 135.655 211.995 135.655C212.096 135.655 212.146 135.485 212.146 135.143V121.428C212.146 119.822 211.305 118.873 209.624 118.582C209.029 118.481 208.732 118.304 208.732 118.051C208.732 117.52 209.003 117.286 209.547 117.349C211.621 117.577 213.936 117.552 216.49 117.273C216.932 117.223 217.217 117.216 217.344 117.254C217.56 117.318 217.667 117.533 217.667 117.899Z" fill="white"></path>
    <path d="M248.324 129.547C248.324 133.948 246.87 137.287 243.961 139.564C241.242 141.664 237.461 142.713 232.617 142.713C232.212 142.713 231.295 142.675 229.866 142.599C228.436 142.523 227.336 142.485 226.565 142.485C225.528 142.485 224.377 142.535 223.112 142.637C222.568 142.687 222.297 142.466 222.297 141.973C222.297 141.644 222.568 141.454 223.112 141.404C224.351 141.278 224.971 140.601 224.971 139.374V121.2C224.971 120.517 224.831 120.056 224.554 119.815C224.325 119.626 223.826 119.448 223.055 119.284C222.409 119.158 222.018 119.05 221.879 118.962C221.739 118.874 221.657 118.684 221.632 118.393C221.594 118.09 221.727 117.893 222.03 117.805C222.093 117.792 222.372 117.767 222.865 117.729C225.584 117.552 229.188 117.464 233.677 117.464C238.04 117.464 241.55 118.514 244.206 120.613C246.952 122.788 248.324 125.766 248.324 129.547ZM244.359 130.06C244.359 122.725 240.59 119.057 233.052 119.057H230.397C229.005 119.183 228.31 119.569 228.31 120.214V137.818C228.31 139.058 228.638 139.886 229.296 140.303C229.953 140.72 231.269 140.929 233.242 140.929C240.653 140.93 244.359 137.306 244.359 130.06Z" fill="white"></path>
  </g>
  <defs>
    <clipPath id="clip0_2301_13026">
      <rect width="249" height="144" fill="white"></rect>
    </clipPath>
  </defs>
</svg>
